<?xml version="1.0" encoding="UTF-8"?><svg id="a" xmlns="http://www.w3.org/2000/svg" viewBox="0 0 645.67 494.33"><defs><style>.b{fill:#713267;}</style></defs><path class="b" d="M322.83,494.33c-86.13,0-167.13-25.65-228.08-72.22C33.65,375.42,0,313.29,0,247.17S33.65,118.91,94.76,72.22C155.7,25.65,236.7,0,322.83,0s167.13,25.65,228.08,72.22c61.1,46.69,94.76,108.82,94.76,174.95s-33.65,128.25-94.76,174.95c-60.94,46.57-141.94,72.22-228.08,72.22ZM322.83,4c-85.26,0-165.4,25.36-225.65,71.4C37.09,121.32,4,182.32,4,247.17s33.09,125.85,93.18,171.77c60.25,46.04,140.39,71.4,225.65,71.4s165.4-25.36,225.65-71.4c60.09-45.92,93.18-106.92,93.18-171.77s-33.09-125.85-93.18-171.77C488.23,29.36,408.09,4,322.83,4Z"/><path class="b" d="M342.57,304h-39.47l-24.08-31.89,43.82-85.52,43.82,85.52-24.08,31.89ZM309.07,292h27.52l15.95-21.11-29.71-57.98-29.71,57.98,15.95,21.11Z"/><rect class="b" x="316.83" y="298" width="12" height="28"/><path class="b" d="M133.33,290H58.08v-75.25h75.25v75.25ZM70.08,278h51.25v-51.25h-51.25v51.25Z"/><path class="b" d="M253.33,305.25h-84.25v-100.75h84.25v100.75ZM181.08,293.25h60.25v-76.75h-60.25v76.75Z"/><rect class="b" x="247.5" y="265.33" width="38.67" height="12"/><rect class="b" x="127.17" y="252.88" width="47.67" height="12"/><rect class="b" x="22.33" y="251.88" width="41.5" height="12"/><path class="b" d="M587.58,290h-75.25v-75.25h75.25v75.25ZM524.33,278h51.25v-51.25h-51.25v51.25Z"/><path class="b" d="M476.58,305.25h-84.25v-100.75h84.25v100.75ZM404.33,293.25h60.25v-76.75h-60.25v76.75Z"/><rect class="b" x="359.5" y="265.33" width="38.67" height="12"/><rect class="b" x="470.83" y="252.88" width="47.67" height="12"/><rect class="b" x="581.83" y="251.88" width="41.5" height="12"/><path class="b" d="M156.39,62.51c-.77,4.78-2.68,9.23-5.73,13.33-3.05,4.1-6.8,7.29-11.24,9.55l-35.95,18.35c5.86-1.59,13.27-1.38,22.23.61,8.96,2,15.98,6.91,21.04,14.74,4.24-2.17,7.69-5.21,10.33-9.15,2.64-3.93,3.68-8.73,3.09-14.39l7.52,29c-2.5-2.49-4.99-5.03-7.47-7.62-1.86,2-3.63,3.74-5.31,5.2-1.68,1.47-3.03,2.64-4.07,3.52,7.2,14.1,9.29,26.83,6.27,38.18-3.02,11.35-9.82,19.72-20.4,25.12-9.86,5.03-17.93,6.13-24.19,3.28-6.27-2.84-11.19-7.78-14.77-14.79-4.47-8.75-4.95-16.67-1.44-23.76,3.5-7.08,9.44-12.76,17.8-17.03l20.18-10.3c-6.7-8.93-13.86-14.42-21.5-16.48-7.64-2.06-15.11-1.22-22.43,2.51-6.47,3.3-10.76,7.55-12.88,12.75-2.12,5.2-2.97,11.76-2.55,19.69-4.54-8.89-4.85-17.93-.93-27.11,3.92-9.18,10.22-15.99,18.91-20.42,5.09-2.6,11.93-6.09,20.52-10.47,8.59-4.38,14.51-7.41,17.78-9.07,7.58-3.87,13.34-6.96,17.3-9.29,3.96-2.33,6.58-4.31,7.89-5.96ZM100.53,172.75c3.08,6.04,8.22,10.39,15.41,13.02,7.19,2.64,13.79,2.42,19.8-.65,7.84-4,11.87-10.37,12.1-19.11.23-8.74-3.08-19.82-9.92-33.23l-28.7,14.65c-4.7,2.4-7.96,5.99-9.76,10.76-1.8,4.77-1.45,9.63,1.07,14.56Z"/><path class="b" d="M173.38,63.24c1.75-.54,3.43-.33,5.04.64,1.61.97,2.77,2.61,3.49,4.92.81,2.61.4,4.98-1.24,7.12-1.64,2.14-3.3,3.47-4.98,4-1.47.46-2.83-.04-4.09-1.49-1.26-1.45-2.23-3.29-2.93-5.52-.88-2.83-.86-4.98.07-6.45.92-1.47,2.47-2.54,4.64-3.22ZM179.58,88.02c2.17-.67,3.97-.25,5.4,1.26,1.43,1.52,2.53,3.5,3.29,5.96l9.75,31.4c.93,2,1.99,2.81,3.18,2.44.84-.26,1.67-1.05,2.49-2.37.82-1.31,1.36-2.18,1.62-2.58-.74,3.56-1.75,6.3-3.03,8.22-1.29,1.92-3.01,3.22-5.18,3.89-1.82.57-3.55.21-5.17-1.08-1.63-1.29-2.79-3.04-3.48-5.27l-10.21-32.88c-.44-1.41-1.15-1.97-2.13-1.66-1.33.41-3,2.32-5.02,5.72-.09-1.52.74-3.91,2.5-7.15,1.76-3.24,3.75-5.21,6-5.91Z"/><path class="b" d="M207.79,80.06c1.99-.44,3.48.3,4.45,2.2.98,1.9,2.02,5.37,3.12,10.4l1.13,5.14c1.85-4.64,3.73-9.28,5.65-13.94,2.56-5.19,5.56-8.17,9.01-8.92,1.94-.43,3.63-.02,5.07,1.22s2.4,2.93,2.86,5.06c.57,2.59-.16,5.77-2.19,9.52-2.03,3.76-4.07,7.3-6.11,10.62.17-.83.24-2.19.22-4.06-.02-1.87-.19-3.49-.49-4.86-.37-1.67-.94-2.99-1.71-3.94-.77-.95-1.8-1.28-3.09-1-1.36.3-2.77,1.99-4.24,5.06-1.46,3.08-2.84,6.15-4.11,9.23l4.67,21.28c-.94,1.48-2.09,3.02-3.44,4.63-1.35,1.61-3.06,2.8-5.12,3.57l-8.27-37.72c-.35-1.59-1.24-2.24-2.67-1.92-.64.14-1.34.55-2.09,1.24-.75.69-1.54,1.71-2.36,3.09.59-2.76,2-6.03,4.23-9.79,2.23-3.76,4.06-5.8,5.49-6.11Z"/><path class="b" d="M270.92,69.32c2.84-.33,5.25-.07,7.24.8,1.99.87,4.78,2.83,8.39,5.87l-23.2,31.45c1.76,2.38,3.75,3.82,5.99,4.3,2.23.48,4.7.57,7.39.25,2.69-.32,5.15-1.29,7.35-2.91,2.21-1.62,4.17-3.29,5.89-5.02-2.35,5.11-5.13,9.06-8.35,11.85s-7.08,4.46-11.59,4.99c-6.48.76-11.33-.91-14.54-5.02-3.22-4.11-5.13-8.73-5.73-13.85-1.06-9.01.45-16.5,4.55-22.5,4.09-5.99,9.63-9.4,16.62-10.23ZM262.04,104.88c2.24-2.95,4.47-5.89,6.71-8.84,3.34-4.89,4.87-8.46,4.61-10.72-.32-2.72-1.19-4.77-2.61-6.14-1.42-1.37-3.15-1.94-5.18-1.7-2.55.3-4.36,2.15-5.44,5.55-1.08,3.4-1.35,7.32-.83,11.75.22,1.87.54,3.63.95,5.27.42,1.65,1.01,3.25,1.79,4.82Z"/><path class="b" d="M304.6,85.85c4.51-5.55,8.55-10.12,12.15-13.71,3.59-3.58,7.07-5.41,10.45-5.48l10.12-.21c-4.88,1.67-9.87,4.19-14.97,7.58-5.1,3.39-9.3,6.76-12.61,10.12,5.15.91,9.46,5.4,12.93,13.46,3.47,8.07,6.96,12.06,10.48,11.99.73-.02,1.59-.26,2.57-.72s2.19-1.28,3.63-2.45c-.98,2.47-2.67,4.91-5.07,7.32-2.41,2.42-4.82,3.65-7.24,3.7-3.52.07-7.07-4.05-10.65-12.36-3.58-8.31-7.47-12.66-11.65-13.04l.29,14.33c.06,2.98-.91,5.66-2.91,8.06-2,2.39-4.51,3.62-7.51,3.68l-1.2-58.34c-.12-5.62,1.22-10.43,3.99-14.44,2.78-4,6.48-6.05,11.09-6.15l9.9-.2c-2.25,4.57-5.25,7.03-8.98,7.38-3.73.35-5.59,1.11-5.56,2.28l.77,37.2Z"/><path class="b" d="M369.34,68.29c2.85.21,5.17.94,6.95,2.17,1.78,1.23,4.15,3.69,7.12,7.36l-28.78,26.45c1.27,2.68,2.96,4.46,5.06,5.36,2.1.9,4.5,1.45,7.21,1.65,2.7.2,5.3-.28,7.77-1.45,2.48-1.17,4.72-2.44,6.74-3.8-3.28,4.56-6.77,7.91-10.46,10.04-3.69,2.13-7.8,3.03-12.33,2.69-6.51-.49-10.95-3.05-13.32-7.7-2.37-4.65-3.37-9.54-2.98-14.69.67-9.04,3.59-16.12,8.75-21.22,5.16-5.1,11.25-7.39,18.27-6.87ZM353.85,101.51c2.76-2.47,5.51-4.93,8.27-7.4,4.21-4.16,6.4-7.38,6.57-9.64.2-2.73-.26-4.91-1.39-6.53-1.13-1.62-2.72-2.5-4.76-2.65-2.56-.19-4.69,1.28-6.4,4.41-1.71,3.13-2.72,6.93-3.06,11.38-.14,1.88-.16,3.66-.07,5.36.09,1.7.37,3.39.83,5.07Z"/><path class="b" d="M417.47,74.77c2.82.49,5.05,1.44,6.71,2.83,1.65,1.4,3.77,4.07,6.36,8.02l-31.22,23.52c1,2.79,2.51,4.73,4.51,5.83,2,1.1,4.34,1.88,7.02,2.35,2.67.46,5.3.24,7.88-.69,2.58-.92,4.94-1.97,7.07-3.13-3.71,4.22-7.51,7.22-11.38,8.98-3.88,1.76-8.06,2.25-12.54,1.47-6.43-1.12-10.6-4.1-12.51-8.96-1.91-4.86-2.42-9.83-1.54-14.91,1.55-8.93,5.14-15.69,10.78-20.26,5.63-4.58,11.92-6.26,18.85-5.06ZM398.81,106.32c2.98-2.18,5.97-4.37,8.95-6.55,4.59-3.73,7.08-6.72,7.47-8.96.47-2.7.22-4.91-.74-6.63-.97-1.72-2.46-2.75-4.48-3.11-2.53-.44-4.79.82-6.79,3.77-2,2.95-3.39,6.63-4.15,11.03-.32,1.85-.52,3.63-.59,5.32-.07,1.7.04,3.41.34,5.13Z"/><path class="b" d="M450.1,81.66c1.27.36,1.89,1.19,1.86,2.48-.03,1.29-.83,4.71-2.42,10.26,2.61-1.93,5.27-3.89,7.97-5.87,3.59-2.14,7.11-2.71,10.56-1.72,2.4.69,4.6,3.53,6.6,8.52,2,5,1.96,11.13-.12,18.4-2.12,7.42-6.71,12.85-13.75,16.27-7.04,3.42-12.33,4.63-15.85,3.62-.92-.26-1.83-.99-2.75-2.19-.92-1.19-1.69-2.29-2.32-3.28l-7.02,24.52c-.79,2.77-.35,5.74,1.34,8.9,1.69,3.16,2.6,5.17,2.74,6.02-2.8-2.75-4.69-4.47-5.68-5.15-.99-.69-2.18-1.23-3.59-1.64-2.04-.58-3.77-.76-5.17-.52-1.4.23-5.26,1.4-11.58,3.49.54-.82,2.4-2.27,5.59-4.35,3.19-2.09,5.24-4.74,6.17-7.95l16.87-58.94c.21-.75.19-1.32-.08-1.72-.27-.4-.72-.69-1.35-.87-1.27-.36-2.54-.4-3.8-.11-1.26.29-2.23.54-2.9.75,2.88-2.34,6.04-4.6,9.49-6.78,3.44-2.18,6.5-2.88,9.18-2.12ZM442.91,117.57c-.58,2.02-.39,4.09.57,6.19.96,2.1,2.54,3.46,4.72,4.09,3.17.91,6.22-.21,9.14-3.35,2.92-3.14,4.97-6.77,6.15-10.9,1.59-5.55,2.05-9.76,1.38-12.63-.67-2.87-2.06-4.6-4.17-5.21-2.4-.69-5.11-.19-8.15,1.5-3.04,1.69-4.72,3.09-5.04,4.22l-4.6,16.09Z"/><path class="b" d="M513.22,103.61c2.64,1.1,4.61,2.52,5.91,4.25,1.3,1.73,2.78,4.81,4.43,9.23l-35.65,16.02c.36,2.94,1.4,5.17,3.11,6.69,1.71,1.52,3.82,2.8,6.32,3.84,2.5,1.04,5.11,1.4,7.83,1.08,2.72-.33,5.25-.82,7.59-1.48-4.56,3.3-8.92,5.37-13.09,6.23s-8.36.41-12.55-1.34c-6.02-2.51-9.43-6.35-10.21-11.51-.79-5.16-.19-10.12,1.8-14.88,3.49-8.37,8.49-14.16,15-17.37,6.51-3.21,13.01-3.47,19.5-.75ZM488.03,130.25c3.39-1.47,6.79-2.94,10.18-4.41,5.31-2.62,8.4-4.98,9.27-7.08,1.06-2.53,1.3-4.74.74-6.63-.56-1.89-1.79-3.23-3.68-4.02-2.37-.99-4.86-.26-7.46,2.17-2.61,2.43-4.77,5.71-6.49,9.83-.72,1.74-1.31,3.42-1.76,5.06-.45,1.64-.72,3.33-.81,5.08Z"/><path class="b" d="M542.76,117.64c1.77,1.02,2.37,2.56,1.81,4.62-.56,2.06-2.12,5.33-4.69,9.79l-2.63,4.56c4.49-2.18,9.01-4.35,13.56-6.5,5.38-2.12,9.61-2.29,12.67-.53,1.72.99,2.7,2.43,2.93,4.32s-.2,3.78-1.29,5.67c-1.32,2.3-4,4.15-8.03,5.57-4.03,1.41-7.92,2.66-11.67,3.74.69-.5,1.65-1.46,2.9-2.85,1.24-1.4,2.21-2.71,2.92-3.92.86-1.49,1.32-2.84,1.39-4.06.07-1.22-.47-2.16-1.61-2.82-1.21-.7-3.39-.4-6.54.89s-6.24,2.64-9.25,4.05l-10.88,18.88c-1.69.46-3.58.83-5.66,1.11-2.09.28-4.15,0-6.19-.81l19.28-33.46c.82-1.41.59-2.49-.68-3.22-.57-.33-1.37-.49-2.38-.49-1.02,0-2.29.23-3.83.7,2.3-1.65,5.54-3.11,9.72-4.39,4.18-1.28,6.91-1.55,8.17-.83Z"/><path class="b" d="M601.44,156.68c-2.28.91-4.29,2.03-6.04,3.35-1.75,1.32-3.33,2.52-4.72,3.62-.14-3.67-.68-6.58-1.61-8.73-.94-2.15-2.48-4.05-4.63-5.7-2.15-1.65-3.97-2.41-5.47-2.27-1.49.14-2.76.89-3.82,2.26-1.2,1.56-.37,4.99,2.49,10.3,2.85,5.31,4.8,9.9,5.85,13.77s-.05,7.92-3.3,12.15c-3.83,4.98-7.8,7.17-11.92,6.57s-8.39-2.59-12.81-5.99c-4.48-3.44-6.65-6.51-6.51-9.21.13-2.7,2.84-7.48,8.12-14.35-1.37,4.06-1.8,8.36-1.3,12.88.5,4.52,2.5,8.12,5.99,10.8,4.01,3.08,7.5,2.7,10.46-1.16,1.43-1.87.82-5.46-1.85-10.77-2.67-5.31-4.45-9.85-5.35-13.61-.9-3.76.39-7.91,3.88-12.45,3.01-3.92,6.22-5.75,9.64-5.5,3.42.25,7.01,1.83,10.79,4.73.99.76,2.18,2.03,3.59,3.81,1.41,1.78,2.25,2.78,2.54,3.01.93.71,1.77,1.24,2.54,1.57.76.33,1.91.64,3.45.92Z"/><path class="b" d="M202.59,369.61c-3.34,6.53-8.24,10.51-14.69,11.95-6.45,1.44-13.11.4-19.96-3.11-.03,5.5.06,12.86.26,22.06.2,9.2,1.75,19.3,4.63,30.29,2.88,10.99,7.78,18.25,14.7,21.79,3.54,1.81,7.81,2.51,12.79,2.09,4.98-.42,8.75-1.13,11.31-2.12-4.82,2.97-9.74,4.72-14.77,5.23-5.03.52-10.74-.86-17.13-4.13-7.9-4.04-13.55-10.45-16.94-19.23-3.39-8.78-5.24-18.21-5.54-28.29-.31-10.08.05-21.57,1.08-34.47,7.67,3.92,14,5.84,18.99,5.76,4.99-.08,9.19-3.45,12.6-10.11,3.74-7.31,4.59-13.53,2.55-18.65-2.04-5.12-8.31-10.37-18.83-15.75l-28.05,54.84c-1.17,2.29-1.63,4.65-1.37,7.08.26,2.44,1.52,5.02,3.79,7.75l-29.72-15.2c3.74,1,7.1.99,10.08-.03,2.98-1.03,5.22-3.01,6.73-5.95l16.23-31.73c1.94-3.79,4.7-7.61,8.28-11.46,3.58-3.85,6.95-6.29,10.11-7.31-12.61-6.45-21.92-9.07-27.92-7.86-6.01,1.21-10.51,4.75-13.52,10.63-2.91,5.68-4.13,11.48-3.67,17.39.46,5.92,3.22,12.15,8.3,18.7-7.26-3.72-11.71-8.81-13.35-15.28-1.64-6.47-.76-13.03,2.64-19.67,4.3-8.41,10.46-13.22,18.5-14.46,8.04-1.23,19.11,1.76,33.23,8.98l2.02-.94-.8,1.57c13.95,7.14,23.01,13.58,27.17,19.33,4.16,5.75,4.26,12.52.29,20.29Z"/><path class="b" d="M229.14,375.98c2.45.68,4.35,1.73,5.68,3.17,1.33,1.44,2.95,4.09,4.86,7.98l-30.06,19.53c.62,2.68,1.76,4.61,3.43,5.79,1.67,1.18,3.67,2.1,6,2.74,2.33.64,4.68.63,7.07-.03,2.38-.66,4.58-1.45,6.59-2.37-3.72,3.65-7.38,6.15-11,7.49-3.62,1.34-7.38,1.48-11.28.4-5.6-1.54-9.01-4.65-10.22-9.33-1.22-4.68-1.18-9.36.11-14.04,2.26-8.22,6.12-14.25,11.58-18.08,5.46-3.83,11.21-4.92,17.25-3.25ZM209.44,403.98c2.87-1.81,5.73-3.62,8.6-5.42,4.45-3.13,6.96-5.72,7.53-7.78.69-2.49.68-4.57,0-6.25-.69-1.68-1.91-2.76-3.67-3.25-2.2-.61-4.34.39-6.41,2.99-2.07,2.6-3.66,5.92-4.78,9.97-.47,1.71-.82,3.35-1.05,4.92-.23,1.58-.3,3.18-.21,4.81Z"/><path class="b" d="M273.54,384.49c-1.43,1.77-2.57,3.58-3.43,5.45-.85,1.87-1.61,3.56-2.27,5.09-1.61-2.97-3.22-5.14-4.84-6.5-1.62-1.36-3.62-2.25-6-2.66-2.38-.41-4.13-.23-5.26.55-1.13.78-1.83,1.96-2.11,3.56-.31,1.82,1.74,4.29,6.17,7.41,4.43,3.12,7.84,6.06,10.25,8.79,2.41,2.74,3.18,6.58,2.33,11.52-1.01,5.81-3.26,9.39-6.77,10.73-3.51,1.34-7.71,1.58-12.6.74-4.95-.86-7.93-2.43-8.92-4.73s-.8-7.45.59-15.47c.57,3.97,1.98,7.71,4.22,11.22,2.24,3.51,5.29,5.6,9.15,6.27,4.44.77,7.05-1.1,7.83-5.61.38-2.18-1.58-4.87-5.85-8.08-4.28-3.21-7.54-6.17-9.79-8.88-2.25-2.71-2.91-6.72-1.99-12.02.79-4.58,2.59-7.52,5.4-8.83,2.81-1.31,6.3-1.6,10.49-.88,1.09.19,2.56.71,4.4,1.56s2.92,1.3,3.24,1.36c1.03.18,1.91.24,2.65.17.74-.06,1.78-.32,3.11-.77Z"/><path class="b" d="M289.9,386.95l7.99.79c-1.05,2.03-2.37,3.2-3.94,3.53-1.57.32-3.08.45-4.51.38l-3.26,33.08c-.16,1.6.31,2.46,1.42,2.56.91.09,2.11-.28,3.6-1.11,1.49-.83,3.31-2.15,5.46-3.97-2.2,3.66-4.65,6.61-7.37,8.87-2.72,2.25-5.34,3.26-7.87,3.01-1.95-.19-3.21-1.22-3.78-3.07-.57-1.86-.63-5.08-.18-9.66l3.01-30.56-5.75-.57c.36-1.65,2.28-3.36,5.77-5.11,3.48-1.75,7.18-6.84,11.09-15.27l-1.68,17.1Z"/><path class="b" d="M339.08,389.08l-.51,40.7c.05.96.47,1.44,1.25,1.45.59,0,1.29-.22,2.11-.69.82-.47,2.15-1.27,4-2.43-.87,1.97-2.32,3.9-4.33,5.78-2.02,1.88-3.94,2.81-5.76,2.79-1.04-.01-2.39-.84-4.03-2.47-1.64-1.63-2.45-3.81-2.42-6.52l.07-5.94c-4.04,4.42-7.44,7.98-10.22,10.65-2.77,2.68-5.17,4.01-7.2,3.98-2.22-.03-4.18-1.52-5.87-4.47-1.69-2.95-2.51-6.89-2.45-11.8.12-9.97,2.67-17.68,7.63-23.12s11.36-8.11,19.19-8.01l8.52.11ZM313.24,411.86c-.04,3.59.44,6.24,1.47,7.94,1.02,1.7,2.45,2.56,4.28,2.58,1.57.02,3.25-.49,5.06-1.53,1.81-1.04,3.64-2.47,5.49-4.28l.31-24.53c-4.89-.06-8.87,1.92-11.92,5.96-3.05,4.03-4.61,8.65-4.68,13.86Z"/><path class="b" d="M355.92,387.71c2.14-.21,3.56.56,4.27,2.33.7,1.77,1.21,3.59,1.53,5.47l2.04,20.52.29,2.95c.22,2.26.64,3.96,1.25,5.11.61,1.15,1.79,1.64,3.54,1.47,1.62-.16,3.5-1.75,5.62-4.78,2.13-3.02,3.08-5.62,2.87-7.79l-1.87-18.83c-.23-2.26.44-4.3,2-6.11,1.56-1.81,3.6-2.85,6.14-3.1l3.86,38.86c.22.27.5.54.82.8.32.26.84.36,1.55.29.91-.09,1.96-.57,3.15-1.45,1.19-.88,2.6-2.37,4.23-4.48-1.18,2.67-2.99,5.69-5.45,9.04-2.46,3.35-4.92,5.15-7.38,5.39-1.82.18-3.16-.29-4.03-1.41-.87-1.12-1.41-2.83-1.64-5.15l-.47-4.77c-2.69,3.92-5.2,7.07-7.52,9.46-2.32,2.38-4.88,3.71-7.67,3.99-2.34.23-4.1-.84-5.29-3.22-1.19-2.38-1.96-5.36-2.31-8.92l-2.52-25.33c-.14-1.38-.37-2.39-.69-3.02-.33-.63-.91-.9-1.75-.82-1.04.1-2.44.91-4.19,2.41,1.23-2.85,2.65-5,4.28-6.45,1.63-1.45,3.41-2.27,5.36-2.47Z"/><path class="b" d="M404.24,381.69c1.78-.38,3.11.33,3.99,2.13s1.83,5.06,2.84,9.8l1.03,4.84c1.62-4.32,3.28-8.65,4.97-12.98,2.25-4.83,4.92-7.57,8-8.23,1.73-.37,3.24.04,4.53,1.23s2.15,2.79,2.58,4.79c.52,2.44-.12,5.41-1.91,8.9-1.79,3.5-3.59,6.78-5.4,9.87.15-.78.2-2.05.17-3.8-.03-1.75-.18-3.28-.46-4.57-.34-1.58-.85-2.82-1.54-3.72-.69-.9-1.61-1.23-2.76-.99-1.21.26-2.46,1.82-3.76,4.68s-2.5,5.73-3.62,8.59l4.27,20.03c-.83,1.37-1.84,2.8-3.05,4.29s-2.72,2.58-4.55,3.27l-7.58-35.51c-.32-1.5-1.12-2.12-2.4-1.84-.57.12-1.2.5-1.86,1.13s-1.36,1.58-2.09,2.86c.51-2.58,1.75-5.62,3.72-9.12,1.97-3.49,3.59-5.38,4.86-5.65Z"/><path class="b" d="M468.49,364.24l13.13,38.52c.37.88.92,1.2,1.67.94.56-.19,1.14-.64,1.76-1.36.62-.71,1.6-1.92,2.95-3.62-.17,2.15-.88,4.45-2.15,6.89-1.27,2.45-2.77,3.97-4.5,4.56-.99.34-2.53.01-4.63-.98-2.1-.99-3.58-2.77-4.46-5.34l-1.92-5.62c-2.32,5.52-4.35,10-6.06,13.46-1.72,3.45-3.54,5.51-5.45,6.16-2.1.72-4.44-.03-7.03-2.25-2.58-2.22-4.67-5.65-6.25-10.3-3.22-9.44-3.4-17.55-.54-24.34s7.99-11.44,15.41-13.97l8.06-2.75ZM451.76,394.35c1.16,3.4,2.5,5.73,4.04,6.99,1.53,1.26,3.16,1.59,4.89,1,1.48-.51,2.9-1.55,4.26-3.14,1.36-1.58,2.6-3.54,3.74-5.87l-7.92-23.22c-4.63,1.58-7.71,4.78-9.24,9.6-1.53,4.82-1.45,9.7.23,14.62Z"/><path class="b" d="M526.19,381.13c.73,1.44,1.54,1.93,2.43,1.48,1.18-.6,2.25-2.51,3.21-5.72.1,3.04-.37,5.68-1.43,7.93-1.06,2.25-2.28,3.72-3.66,4.43-1.55.79-3.07.89-4.57.3-1.5-.59-2.81-1.99-3.94-4.21l-11.23-21.97c-.77-1.5-1.52-2.61-2.26-3.34s-1.79-.75-3.15-.05c-1.47.75-2.54,3.46-3.21,8.13s-.85,7.29-.55,7.88l8.47,16.58c.41,1.51.07,3.3-1.01,5.37s-2.45,3.53-4.12,4.38l-17.07-33.41c-.53-1.04-1.15-1.38-1.84-1.03-.87.45-2.08,2.17-3.62,5.18.59-4.26,1.34-7.75,2.24-10.47.9-2.73,1.87-4.35,2.91-4.89,1.62-.83,3.15-.35,4.6,1.42,1.45,1.77,3.25,4.75,5.38,8.92l1.85,3.62c.22-5.13.75-10,1.58-14.58.83-4.58,2.64-7.59,5.42-9.01,2.14-1.09,3.98-1,5.5.28,1.53,1.28,3.13,3.55,4.8,6.81.5.98.99,1.94,1.48,2.89.48.95.98,1.91,1.48,2.89.97,1.89,1.99,3.9,3.08,6.02,1.08,2.12,2.39,4.69,3.93,7.69.87,1.7,1.63,3.18,2.28,4.46s.99,1.94,1.03,2.01Z"/><path class="b" d="M526.03,333.25l6.58-4.59c.52,2.23.28,3.97-.7,5.24-.99,1.27-2.05,2.34-3.18,3.22l19.01,27.26c.92,1.32,1.83,1.66,2.75,1.03.75-.52,1.42-1.58,2.02-3.18.59-1.6,1.12-3.79,1.57-6.56.71,4.21.76,8.05.16,11.53-.6,3.48-1.94,5.94-4.03,7.4-1.61,1.12-3.23,1.16-4.87.12-1.64-1.04-3.78-3.45-6.41-7.23l-17.57-25.19-4.74,3.3c-.8-1.49-.45-4.03,1.07-7.63,1.51-3.59,1.02-9.87-1.49-18.82l9.83,14.1Z"/></svg>